<svg id="Layer_2" data-name="Layer 2" xmlns="http://www.w3.org/2000/svg" viewBox="0 0 4000 1130.94"><defs><style>.cls-1{fill:none;}.cls-1,.cls-4{stroke:#000;stroke-miterlimit:10;stroke-width:1.5px;}.cls-2{font-size:48.01px;}.cls-11,.cls-2,.cls-7{font-family:TimesNewRomanPSMT, Times New Roman;}.cls-3{fill:red;}.cls-5{font-size:12px;}.cls-6{font-size:20px;}.cls-7{font-size:45.67px;}.cls-8{font-size:65.81px;}.cls-9{letter-spacing:0em;}.cls-10{font-size:63.82px;}.cls-11{font-size:46.62px;}</style></defs><title>01_steps</title><ellipse class="cls-1" cx="406.26" cy="775.96" rx="394.05" ry="60.34"/><text class="cls-2" transform="translate(143.55 786.98)"><tspan class="cls-3">f(5-1-2)</tspan><tspan x="151.94" y="0">... 2 steps left to go</tspan></text><rect class="cls-4" x="245.2" y="935.73" width="2.48" height="2.48"/><rect class="cls-4" x="257.78" y="920.72" width="2.38" height="2.38"/><rect class="cls-4" x="272.87" y="907.97" width="2.44" height="2.44"/><rect class="cls-4" x="287.91" y="893.05" width="2.38" height="2.38"/><rect class="cls-4" x="300.33" y="877.89" width="2.5" height="2.5"/><rect class="cls-4" x="315.54" y="865.43" width="2.38" height="2.38"/><rect class="cls-4" x="330.62" y="850.34" width="2.54" height="2.29"/><rect class="cls-4" x="343" y="837.71" width="2.63" height="2.63"/><rect class="cls-4" x="405.94" y="857.82" width="2.48" height="2.48"/><rect class="cls-4" x="405.94" y="837.71" width="2.48" height="2.48"/><rect class="cls-4" x="405.94" y="898.09" width="2.48" height="2.48"/><rect class="cls-4" x="405.94" y="918.15" width="2.48" height="2.48"/><rect class="cls-4" x="405.94" y="877.98" width="2.48" height="2.48"/><polygon points="230.47 930.89 251.91 952.64 212.65 970.9 230.47 930.89"/><polygon points="391.11 920.63 405.94 961.02 421.11 920.63 391.11 920.63"/><polygon points="561.82 953.31 601.28 970.61 581.55 933.27 561.82 953.31"/><rect class="cls-4" x="564.29" y="935.74" width="2.5" height="2.5"/><rect class="cls-4" x="509.01" y="877.94" width="2.5" height="2.5"/><rect class="cls-4" x="466.3" y="837.79" width="2.5" height="2.5"/><rect class="cls-4" x="478.77" y="850.22" width="2.5" height="2.5"/><rect class="cls-4" x="493.93" y="865.35" width="2.5" height="2.5"/><rect class="cls-4" x="536.68" y="908.1" width="2.5" height="2.5"/><rect class="cls-4" x="521.56" y="893.06" width="2.5" height="2.5"/><rect class="cls-4" x="551.69" y="920.69" width="2.5" height="2.5"/><ellipse class="cls-1" cx="1241.25" cy="775.96" rx="383.4" ry="60.34"/><text class="cls-2" transform="translate(989.19 786.98)"><tspan class="cls-3">f(5-1-3)</tspan><tspan x="151.94" y="0">... 1 step left to go</tspan></text><rect class="cls-4" x="1041.26" y="940.18" width="2.48" height="2.48"/><rect class="cls-4" x="1056.78" y="925.73" width="2.35" height="2.35"/><rect class="cls-4" x="1071.93" y="913.13" width="2.44" height="2.44"/><rect class="cls-4" x="1086.98" y="900.56" width="2.38" height="2.38"/><rect class="cls-4" x="1101.99" y="887.98" width="2.5" height="2.5"/><rect class="cls-4" x="1119.67" y="872.93" width="2.38" height="2.38"/><rect class="cls-4" x="1134.62" y="860.24" width="2.54" height="2.54"/><rect class="cls-4" x="1149.77" y="847.74" width="2.54" height="2.54"/><rect class="cls-4" x="1164.81" y="837.71" width="2.63" height="2.63"/><rect class="cls-4" x="1220.1" y="857.82" width="2.48" height="2.48"/><rect class="cls-4" x="1225.32" y="837.79" width="2.48" height="2.48"/><rect class="cls-4" x="1212.53" y="895.61" width="2.48" height="2.48"/><rect class="cls-4" x="1207.66" y="915.67" width="2.48" height="2.48"/><rect class="cls-4" x="1217.61" y="877.98" width="2.48" height="2.48"/><polygon points="1020.81 936.89 1039.63 960.94 998.55 974.61 1020.81 936.89"/><polygon points="1193.34 919.9 1199.54 962.47 1222.7 926.07 1193.34 919.9"/><polygon points="1349.88 943.56 1389.35 966.26 1373.09 925.36 1349.88 943.56"/><rect class="cls-4" x="1348.34" y="918.19" width="2.5" height="2.5"/><rect class="cls-4" x="1360.79" y="930.69" width="2.5" height="2.5"/><rect class="cls-4" x="1287.99" y="837.79" width="2.5" height="2.5"/><rect class="cls-4" x="1300.61" y="852.73" width="2.5" height="2.5"/><rect class="cls-4" x="1325.68" y="885.44" width="2.5" height="2.5"/><rect class="cls-4" x="1310.59" y="867.87" width="2.5" height="2.5"/><rect class="cls-4" x="1335.75" y="900.53" width="2.5" height="2.5"/><ellipse class="cls-1" cx="1651.36" cy="406.13" rx="366.33" ry="60.59"/><text class="cls-2" transform="translate(1412.97 417.4) scale(0.95 1)"><tspan class="cls-3">f(5-1)</tspan><tspan x="111.95" y="0">... 4 steps left to go</tspan></text><text class="cls-2" transform="translate(1348.34 584.15)">jump three steps</text><text class="cls-2" transform="translate(1820.67 520.49)">jump one step again</text><text class="cls-2" transform="translate(982.99 496.49)">jump two steps</text><line class="cls-1" x1="1411.71" y1="451.15" x2="684.47" y2="717.16"/><polygon points="704.28 723.08 657.22 729.43 691.91 697.76 698.26 710.76 704.28 723.08"/><line class="cls-1" x1="1549.81" y1="464.23" x2="1349.47" y2="691.35"/><polygon points="1340.06 681.11 1361.43 697.16 1330.56 716.26 1340.06 681.11"/><line class="cls-1" x1="1756.59" y1="463.98" x2="1944.88" y2="687.29"/><polygon points="1954.7 676.79 1931.92 691.56 1969.2 715.68 1954.7 676.79"/><ellipse class="cls-1" cx="2076.23" cy="775.14" rx="392.95" ry="60.34"/><text class="cls-2" transform="translate(1814.89 786.17) scale(1.02 1)"><tspan class="cls-3">f(5-1-1)</tspan><tspan x="151.94" y="0">...3 steps left to go</tspan></text><rect class="cls-4" x="1896.09" y="928.14" width="2.54" height="2.48"/><rect class="cls-4" x="1911.24" y="915.65" width="2.5" height="2.44"/><rect class="cls-4" x="1926.31" y="903.08" width="2.43" height="2.38"/><rect class="cls-4" x="1941.37" y="887.96" width="2.56" height="2.5"/><rect class="cls-4" x="1958.99" y="875.49" width="2.43" height="2.38"/><rect class="cls-4" x="1973.94" y="862.8" width="2.61" height="2.54"/><rect class="cls-4" x="1989.02" y="847.72" width="2.61" height="2.54"/><rect class="cls-4" x="2004.01" y="837.73" width="2.69" height="2.63"/><polygon points="1879.07 923.95 1899.8 946.77 1858.61 962.99 1879.07 923.95"/><polygon points="2209.21 940.86 2250.37 962.26 2232.41 921.92 2209.21 940.86"/><rect class="cls-4" x="2200.17" y="910.62" width="2.56" height="2.5"/><rect class="cls-4" x="2215.13" y="925.69" width="2.56" height="2.5"/><rect class="cls-4" x="2132.38" y="837.54" width="2.56" height="2.5"/><rect class="cls-4" x="2144.94" y="850.29" width="2.56" height="2.5"/><rect class="cls-4" x="2172.45" y="880.44" width="2.56" height="2.5"/><rect class="cls-4" x="2159.85" y="865.32" width="2.56" height="2.5"/><rect class="cls-4" x="2187.52" y="895.46" width="2.56" height="2.5"/><polygon points="2635.07 973.34 2678.38 971.77 2645.01 946.08 2635.07 973.34"/><rect class="cls-4" x="2491.55" y="910.64" width="2.56" height="2.5"/><rect class="cls-4" x="2511.69" y="918.11" width="2.56" height="2.5"/><rect class="cls-4" x="2416.24" y="885.51" width="2.56" height="2.5"/><rect class="cls-4" x="2453.9" y="898.1" width="2.56" height="2.5"/><rect class="cls-4" x="2433.83" y="893.02" width="2.56" height="2.5"/><rect class="cls-4" x="2358.46" y="867.86" width="2.56" height="2.5"/><rect class="cls-4" x="2396.09" y="880.4" width="2.56" height="2.5"/><rect class="cls-4" x="2376.06" y="872.9" width="2.56" height="2.5"/><rect class="cls-4" x="2300.68" y="847.79" width="2.56" height="2.5"/><rect class="cls-4" x="2338.35" y="860.31" width="2.56" height="2.5"/><rect class="cls-4" x="2320.74" y="855.27" width="2.56" height="2.5"/><rect class="cls-4" x="2262.94" y="835.2" width="2.56" height="2.5"/><rect class="cls-4" x="2280.55" y="842.75" width="2.56" height="2.5"/><rect class="cls-4" x="2474.08" y="905.54" width="2.56" height="2.5"/><rect class="cls-4" x="2607.22" y="948.34" width="2.56" height="2.5"/><rect class="cls-4" x="2627.36" y="955.85" width="2.56" height="2.5"/><rect class="cls-4" x="2531.8" y="923.19" width="2.56" height="2.5"/><rect class="cls-4" x="2569.53" y="935.75" width="2.56" height="2.5"/><rect class="cls-4" x="2549.43" y="930.66" width="2.56" height="2.5"/><rect class="cls-4" x="2587.18" y="943.23" width="2.56" height="2.5"/><ellipse class="cls-1" cx="1795.84" cy="1017.9" rx="217.28" ry="61.76"/><text class="cls-2" transform="translate(1664.57 1028.15)"><tspan class="cls-3">f(0)? </tspan><tspan x="105.27" y="0" xml:space="preserve"> return 1</tspan></text><ellipse class="cls-1" cx="2302.32" cy="1017.9" rx="229.53" ry="61.76"/><text class="cls-2" transform="translate(2159.64 1028.15) scale(1.06 1)"><tspan class="cls-3">f(-1)?</tspan><tspan class="cls-5" x="109.26" y="0"> </tspan><tspan x="112.26" y="0" xml:space="preserve"> return</tspan><tspan class="cls-6" x="238.88" y="0"> </tspan><tspan x="243.88" y="0">0</tspan></text><ellipse class="cls-1" cx="2817.41" cy="1017.9" rx="229.53" ry="61.76"/><text class="cls-2" transform="translate(2674.74 1028.15) scale(1.06 1)"><tspan class="cls-3">f(-2)?</tspan><tspan class="cls-5" x="109.26" y="0"> </tspan><tspan x="112.26" y="0" xml:space="preserve"> return</tspan><tspan class="cls-6" x="238.88" y="0"> </tspan><tspan x="243.88" y="0">0</tspan></text><ellipse class="cls-1" cx="2824.88" cy="90.34" rx="324.37" ry="61.16"/><ellipse class="cls-1" cx="3618.31" cy="476.46" rx="367.71" ry="59.16"/><text class="cls-7" transform="translate(3378.61 486.53)"><tspan class="cls-3">f(5-3)</tspan><tspan x="106.5" y="0">...</tspan><tspan class="cls-8" x="140.75" y="0"> </tspan><tspan x="157.2" y="0">2 steps left to go</tspan></text><ellipse class="cls-1" cx="2823.21" cy="477.45" rx="367.38" ry="61.49"/><text class="cls-7" transform="translate(2586.55 490.54)"><tspan class="cls-3">f(5-2)</tspan><tspan x="106.5" y="0">...</tspan><tspan class="cls-8" x="140.75" y="0"> </tspan><tspan x="157.2" y="0">3 steps left to go</tspan></text><text class="cls-7" transform="translate(2616.56 100.42)"><tspan class="cls-3">f(5)</tspan><tspan class="cls-9" x="68.46" y="0">...5 steps</tspan><tspan class="cls-10" x="228.29" y="0"> </tspan><tspan x="244.24" y="0">left to go</tspan></text><text class="cls-11" transform="translate(2250.37 151.5)">jump one step</text><text class="cls-11" transform="translate(2720.37 267.27)">jump two steps</text><text class="cls-11" transform="translate(3228.59 213.09)">jump three steps</text><line class="cls-1" x1="2596.33" y1="133.74" x2="1912.77" y2="352.88"/><polygon points="1911.89 339.17 1917.17 367.05 1875.89 361.85 1911.89 339.17"/><line class="cls-1" x1="2824.88" y1="151.5" x2="2822.94" y2="384.04"/><polygon points="2809.57 380.56 2837.19 380.56 2823.38 418.21 2809.57 380.56"/><line class="cls-1" x1="3016.82" y1="139.64" x2="3412.62" y2="414.97"/><polygon points="3414.89 400.82 3405.26 428.12 3444.95 425.81 3414.89 400.82"/><rect class="cls-4" x="2770.7" y="539.16" width="2.31" height="2.31"/><rect class="cls-4" x="2757.99" y="554.29" width="2.38" height="2.38"/><rect class="cls-4" x="2745.47" y="569.27" width="2.48" height="2.48"/><rect class="cls-4" x="2732.89" y="584.34" width="2.5" height="2.5"/><rect class="cls-4" x="2717.85" y="599.41" width="2.52" height="2.52"/><rect class="cls-4" x="2705.27" y="614.48" width="2.48" height="2.48"/><rect class="cls-4" x="2692.7" y="629.58" width="2.47" height="2.47"/><polygon points="2677.7 626.92 2699.28 646.56 2663.11 665.06 2677.7 626.92"/><rect class="cls-4" x="2833.4" y="540.22" width="2.49" height="2.52"/><rect class="cls-4" x="2835.91" y="556.55" width="2.48" height="2.48"/><rect class="cls-4" x="2838.41" y="576.64" width="2.51" height="2.51"/><rect class="cls-4" x="2843.43" y="596.75" width="2.5" height="2.5"/><rect class="cls-4" x="2845.95" y="616.84" width="2.49" height="2.49"/><polygon points="2833.09 622.12 2861.41 620.68 2852.09 659.88 2833.09 622.12"/><rect class="cls-4" x="2908.77" y="546.48" width="2.51" height="2.51"/><rect class="cls-4" x="2923.86" y="561.56" width="2.5" height="2.49"/><rect class="cls-4" x="2938.93" y="574.13" width="2.5" height="2.5"/><rect class="cls-4" x="2954.01" y="586.69" width="2.51" height="2.51"/><rect class="cls-4" x="2969.08" y="599.26" width="2.51" height="2.51"/><rect class="cls-4" x="2984.15" y="614.33" width="2.51" height="2.52"/><rect class="cls-4" x="2999.24" y="626.9" width="2.51" height="2.51"/><rect class="cls-4" x="3014.31" y="639.46" width="2.51" height="2.51"/><path d="M3031.68,634.43,3011.92,657s37.75,13,37.75,12.69S3031.68,634.43,3031.68,634.43Z"/><rect x="3557.1" y="533.93" width="2.5" height="2.5"/><rect class="cls-4" x="3542" y="548.99" width="2.5" height="2.5"/><rect class="cls-4" x="3529.44" y="561.58" width="2.5" height="2.5"/><rect class="cls-4" x="3514.33" y="576.62" width="2.5" height="2.5"/><rect class="cls-4" x="3499.34" y="591.75" width="2.5" height="2.5"/><rect class="cls-4" x="3484.21" y="606.79" width="2.5" height="2.5"/><rect class="cls-4" x="3471.69" y="619.35" width="2.5" height="2.5"/><rect class="cls-4" x="3456.58" y="634.41" width="2.5" height="2.5"/><polygon points="3443.54 629.73 3464.46 651.98 3424.74 668.63 3443.54 629.73"/><rect class="cls-4" x="3617.39" y="536.43" width="2.52" height="2.52"/><rect class="cls-4" x="3617.41" y="556.55" width="2.52" height="2.52"/><rect class="cls-4" x="3617.43" y="576.6" width="2.52" height="2.52"/><rect class="cls-4" x="3617.42" y="616.86" width="2.52" height="2.52"/><rect class="cls-4" x="3617.43" y="596.74" width="2.52" height="2.52"/><polygon points="3604.74 619.38 3618.68 659.69 3632.62 619.38 3604.74 619.38"/><rect class="cls-4" x="3692.77" y="548.98" width="2.53" height="2.53"/><rect x="3677.65" y="533.95" width="2.53" height="2.53"/><rect class="cls-4" x="3707.84" y="564.08" width="2.53" height="2.53"/><rect class="cls-4" x="3720.42" y="576.58" width="2.53" height="2.53"/><rect class="cls-4" x="3735.55" y="591.7" width="2.53" height="2.53"/><rect class="cls-4" x="3750.56" y="606.79" width="2.53" height="2.53"/><rect class="cls-4" x="3765.61" y="619.37" width="2.53" height="2.53"/><rect class="cls-4" x="3778.19" y="634.33" width="2.53" height="2.53"/><polygon points="3773.58 651.81 3795.5 629.64 3813.41 669.56 3773.58 651.81"/></svg>