<svg id="Layer_3" data-name="Layer 3" xmlns="http://www.w3.org/2000/svg" viewBox="0 0 4000 1130.94"><defs><style>.cls-1{fill:none;stroke:#000;stroke-miterlimit:10;stroke-width:1.5px;}.cls-2{font-size:29.97px;}.cls-2,.cls-3,.cls-4,.cls-5,.cls-6,.cls-7{font-family:TimesNewRomanPSMT, Times New Roman;}.cls-3{font-size:29.89px;}.cls-4{font-size:30.02px;}.cls-5{font-size:29.76px;}.cls-6{font-size:29.97px;}.cls-7{font-size:30.01px;}</style></defs><title>02_change-01</title><line class="cls-1" x1="1870.21" y1="467.49" x2="1871.09" y2="805.26"/><line class="cls-1" x1="669.48" y1="560.29" x2="1675.1" y2="450.53"/><line class="cls-1" x1="2003.37" y1="460.71" x2="2293" y2="865.78"/><line class="cls-1" x1="2052.57" y1="402.99" x2="2806.88" y2="295.04"/><line class="cls-1" x1="2762.91" y1="391.23" x2="2897.97" y2="309.21"/><line class="cls-1" x1="3019.57" y1="311.16" x2="3155.26" y2="391.79"/><line class="cls-1" x1="3089.74" y1="299.53" x2="3579.47" y2="399.71"/><line class="cls-1" x1="1501.71" y1="853.68" x2="1741.78" y2="461.23"/><ellipse class="cls-1" cx="1870.21" cy="428.15" rx="237.22" ry="39.34"/><text class="cls-2" transform="translate(1715.29 436.84) scale(1.01 1)">change(10 - $2 * 3, [3,5])</text><line class="cls-1" x1="2744.93" y1="466.45" x2="2843.39" y2="553.9"/><ellipse class="cls-1" cx="2701.96" cy="428.52" rx="237.75" ry="38.57"/><text class="cls-3" transform="translate(2547.34 435.96) scale(1.01 1)">change(10 - $2 * 2, [3,5])</text><ellipse class="cls-1" cx="2958.06" cy="272.72" rx="184.31" ry="39.02"/><text class="cls-4" transform="translate(2841.01 281.56) scale(1.01 1)">change(10, [2,3,5])</text><line class="cls-1" x1="3215.37" y1="467.08" x2="3215.37" y2="545.44"/><ellipse class="cls-1" cx="3215.37" cy="428.82" rx="237.95" ry="38.26"/><text class="cls-5" transform="translate(3061.16 437.35) scale(1.01 1)">change(10 - $2 * 1, [3,5])</text><ellipse class="cls-1" cx="3729.19" cy="430.23" rx="237.95" ry="39.27"/><rect x="3710.85" y="589.6" width="6.9" height="6.9"/><rect x="3725.26" y="589.6" width="6.9" height="6.9"/><rect x="3739.29" y="589.6" width="6.9" height="6.9"/><ellipse class="cls-1" cx="3728.21" cy="584.69" rx="58.08" ry="39.25"/><rect x="3198.01" y="589.6" width="6.9" height="6.9"/><rect x="3212.42" y="589.6" width="6.9" height="6.9"/><rect x="3226.45" y="589.6" width="6.9" height="6.9"/><ellipse class="cls-1" cx="3215.37" cy="584.69" rx="58.08" ry="39.25"/><rect x="2862.02" y="589.6" width="6.9" height="6.9"/><rect x="2876.43" y="589.6" width="6.9" height="6.9"/><rect x="2890.46" y="589.6" width="6.9" height="6.9"/><ellipse class="cls-1" cx="2879.39" cy="584.69" rx="58.08" ry="39.25"/><line class="cls-1" x1="3728.51" y1="469.5" x2="3728.21" y2="545.44"/><text class="cls-6" transform="translate(3573.36 438.45) scale(1.01 1)">change(10 - $2 * 0, [3,5])</text><line class="cls-1" x1="32.86" y1="860.94" x2="261.64" y2="614.34"/><line class="cls-1" x1="580.98" y1="618.58" x2="807.21" y2="846.42"/><line class="cls-1" x1="400.68" y1="622.53" x2="366.8" y2="897.24"/><ellipse class="cls-1" cx="445.55" cy="584.69" rx="290.49" ry="38.3"/><text class="cls-7" transform="translate(250.73 593.37) scale(1.01 1)">change(10 - $2 * 2 - $3 * 3, [5])</text></svg>