<svg id="Layer_2" data-name="Layer 2" xmlns="http://www.w3.org/2000/svg" viewBox="0 0 4000 1130.94"><defs><style>.cls-1{fill:none;}.cls-1,.cls-5{stroke:#000;stroke-miterlimit:10;stroke-width:1.5px;}.cls-2,.cls-3{font-size:62.09px;}.cls-10,.cls-2,.cls-4,.cls-6,.cls-7{fill:blue;}.cls-10,.cls-2,.cls-3,.cls-6,.cls-7{font-family:TimesNewRomanPSMT, Times New Roman;}.cls-3{fill:red;}.cls-6{font-size:60.68px;}.cls-7{font-size:57.58px;}.cls-8{letter-spacing:-0.07em;}.cls-9{letter-spacing:0em;}.cls-10{font-size:59.55px;}</style></defs><title>03_permutations</title><line class="cls-1" x1="3021.71" y1="129.67" x2="2572.04" y2="355"/><polygon points="2564.11 338.68 2536.69 379.48 2584.68 368.69 2564.11 338.68"/><text class="cls-2" transform="translate(2432.53 442.58)">a</text><ellipse class="cls-1" cx="2446.07" cy="425.01" rx="114.61" ry="75.8"/><ellipse class="cls-1" cx="2446.07" cy="741.31" rx="114.09" ry="75.8"/><ellipse class="cls-1" cx="2020.04" cy="745.23" rx="113.84" ry="75.37"/><line class="cls-1" x1="2359.04" y1="474.3" x2="2140.18" y2="663.29"/><polygon points="2127.7 649.39 2152.69 675.24 2108.03 695.57 2127.7 649.39"/><line class="cls-1" x1="2446.07" y1="500.82" x2="2446.07" y2="621.91"/><polygon points="2429 621.91 2463.93 621.91 2446.59 666.92 2429 621.91"/><text class="cls-3" transform="translate(1991.41 760.24)">a<tspan class="cls-4" x="27.56" y="0">b</tspan></text><text class="cls-2" transform="translate(2419.42 754.68)">ac</text><rect class="cls-5" x="2443.93" y="819.86" width="3.16" height="3.16"/><rect class="cls-5" x="2443.93" y="845.21" width="3.16" height="3.16"/><rect class="cls-5" x="2443.93" y="870.57" width="3.16" height="3.16"/><rect class="cls-5" x="2443.93" y="896" width="3.16" height="3.16"/><ellipse class="cls-1" cx="2019.09" cy="1049.31" rx="114.78" ry="76.58"/><text class="cls-3" transform="translate(1977.95 1062.77)">ab<tspan class="cls-4" x="58.61" y="0">c</tspan></text><line class="cls-1" x1="2020.04" y1="820.61" x2="2019.09" y2="928.75"/><polygon points="2002.27 927.46 2036.94 927.46 2019.57 975.06 2002.27 927.46"/><rect class="cls-5" x="2443.93" y="921.42" width="3.16" height="3.16"/><path d="M2428.48,924.58s17,51.26,17,51.13l17.64-51.13Z"/><rect class="cls-5" x="3036.38" y="560.98" width="3.17" height="3.17"/><rect class="cls-5" x="3026.85" y="583.2" width="3.17" height="3.17" transform="translate(555.04 -1257.97) rotate(25.76)"/><polygon points="3009.64 579.19 3043.89 596.67 3001.11 633.09 3009.64 579.19"/><ellipse class="cls-1" cx="3125.38" cy="93.05" rx="118.49" ry="75.55"/><ellipse class="cls-1" cx="3124.52" cy="397.65" rx="114.87" ry="76.24"/><ellipse class="cls-1" cx="3592.97" cy="398" rx="115.56" ry="75.89"/><line class="cls-1" x1="3125.38" y1="168.6" x2="3122.1" y2="276.57"/><polygon points="3104.16 275.06 3141.68 275.06 3122.27 321.43 3104.16 275.06"/><line class="cls-1" x1="3207.66" y1="147.41" x2="3474.65" y2="321.42"/><polygon points="3484.12 303.63 3459.75 334.53 3509.83 345.3 3484.12 303.63"/><text class="cls-2" transform="translate(3108.42 414.53) scale(1.07 1)">b</text><text class="cls-2" transform="translate(3580.38 414.53)">c</text><text class="cls-2" transform="translate(3068.28 110.33)">start</text><rect class="cls-5" x="3083.93" y="472.16" width="3.17" height="3.17"/><rect class="cls-5" x="3071.27" y="491.18" width="3.19" height="3.14"/><rect class="cls-5" x="3160.27" y="472.17" width="3.19" height="3.14"/><rect class="cls-5" x="3169.66" y="491.18" width="3.19" height="3.14"/><rect class="cls-5" x="3182.25" y="513.37" width="3.19" height="3.14"/><rect class="cls-5" x="3194.84" y="538.76" width="3.19" height="3.14"/><rect class="cls-5" x="3591.37" y="475.34" width="3.19" height="3.14" transform="translate(3.07 -22.59) rotate(0.36)"/><rect class="cls-5" x="3591.37" y="500.69" width="3.19" height="3.14" transform="translate(3.23 -22.59) rotate(0.36)"/><rect class="cls-5" x="3673.82" y="478.53" width="3.19" height="3.14" transform="translate(3.09 -23.11) rotate(0.36)"/><rect class="cls-5" x="3692.99" y="497.48" width="3.19" height="3.14" transform="translate(3.21 -23.23) rotate(0.36)"/><rect class="cls-5" x="3711.94" y="513.42" width="3.19" height="3.14" transform="translate(3.31 -23.34) rotate(0.36)"/><rect class="cls-5" x="3731.02" y="532.43" width="3.19" height="3.14" transform="translate(3.43 -23.46) rotate(0.36)"/><rect class="cls-5" x="3746.84" y="548.38" width="3.19" height="3.14" transform="translate(3.53 -23.56) rotate(0.36)"/><rect class="cls-5" x="3765.86" y="567.33" width="3.19" height="3.14" transform="translate(3.65 -23.68) rotate(0.36)"/><rect class="cls-5" x="3784.87" y="586.41" width="3.19" height="3.14" transform="translate(3.77 -23.8) rotate(0.36)"/><rect class="cls-5" x="3803.92" y="602.19" width="3.19" height="3.14" transform="translate(3.87 -23.92) rotate(0.36)"/><rect class="cls-5" x="3658.1" y="462.62" width="3.19" height="3.14" transform="translate(2.99 -23.01) rotate(0.36)"/><rect class="cls-5" x="3591.37" y="526.05" width="3.19" height="3.14" transform="translate(3.39 -22.59) rotate(0.36)"/><rect class="cls-5" x="3591.37" y="551.49" width="3.19" height="3.14" transform="translate(3.55 -22.59) rotate(0.36)"/><rect class="cls-5" x="3591.37" y="576.88" width="3.19" height="3.14" transform="translate(3.71 -22.59) rotate(0.36)"/><rect class="cls-5" x="3207.44" y="560.83" width="3.19" height="3.14"/><rect class="cls-5" x="3217.22" y="583.03" width="3.19" height="3.14" transform="translate(377.09 2205.45) rotate(-39.99)"/><rect class="cls-5" x="3061.72" y="513.38" width="3.19" height="3.12"/><rect class="cls-5" x="3049.02" y="538.72" width="3.12" height="3.21"/><polygon points="3201.94 597.78 3239.39 578.83 3246.33 634.42 3201.94 597.78"/><polygon points="3575.61 580.03 3610.41 580.03 3593.01 630.87 3575.61 580.03"/><polygon points="3794.55 620.84 3821.33 594.32 3845 642.9 3794.55 620.84"/><text class="cls-6" transform="translate(1705.01 60.84)">at “start”, element at position 0 (can be ‘a’, ‘b’, ‘c’)</text><text class="cls-7" transform="translate(762.07 379.98)">at “a”, element at position 1 can be ‘b<tspan class="cls-8" x="868.07" y="0">’</tspan><tspan class="cls-9" x="882.97" y="0" xml:space="preserve"> or ‘c’. ‘a</tspan><tspan class="cls-8" x="1097.13" y="0">’</tspan><tspan class="cls-9" x="1112.03" y="0" xml:space="preserve"> already taken up.</tspan></text><text class="cls-10" transform="translate(111.04 704.17)">at “ab” element at position 2 can only be “c”. “a” and “b” already taken up.</text></svg>