<svg id="Layer_2" data-name="Layer 2" xmlns="http://www.w3.org/2000/svg" viewBox="0 0 4000 1130.94"><defs><style>.cls-1,.cls-8{fill:none;stroke:#000;stroke-width:1.5px;}.cls-1{stroke-miterlimit:10;}.cls-2{font-size:65.83px;}.cls-2,.cls-4,.cls-5,.cls-6,.cls-7{fill:red;}.cls-2,.cls-3,.cls-4,.cls-5,.cls-6,.cls-7{font-family:TimesNewRomanPSMT, Times New Roman;}.cls-3{font-size:40.36px;fill:blue;}.cls-4{font-size:58.26px;}.cls-5{font-size:38.17px;}.cls-6{font-size:35.83px;}.cls-7{font-size:35.15px;}.cls-8{stroke-miterlimit:6;}</style></defs><title>04_nqueens</title><polygon points="1710.44 374.26 1714.72 391.77 1686.44 389.4 1710.44 374.26"/><ellipse class="cls-1" cx="1489.72" cy="433.66" rx="228.43" ry="83.01"/><text class="cls-2" transform="translate(1360.93 451.9)">Column 1</text><text class="cls-3" transform="translate(879.59 350.65)">where to place queen in row 1</text><ellipse class="cls-1" cx="2844.79" cy="130.95" rx="113.73" ry="73.71"/><text class="cls-4" transform="translate(2794.91 146.53)">start</text><polygon points="3479.97 454.78 3489.62 435.02 3514.3 459.31 3479.97 454.78"/><ellipse class="cls-1" cx="3630.45" cy="483.57" rx="132.17" ry="48.55"/><rect x="3501.27" y="608.53" width="3.59" height="3.59"/><rect x="3511.87" y="596.82" width="3.59" height="3.59"/><rect x="3535.61" y="573.55" width="3.59" height="3.59"/><rect x="3627.69" y="595.64" width="3.59" height="3.59"/><rect x="3558.01" y="550.6" width="3.59" height="3.59"/><rect x="3627.69" y="563.51" width="3.59" height="3.59"/><rect x="3708.65" y="562.71" width="3.59" height="3.59"/><rect x="3793.27" y="564.51" width="3.59" height="3.59"/><rect x="3696.54" y="550.6" width="3.59" height="3.59"/><rect x="3778.37" y="556.98" width="3.59" height="3.59"/><rect x="3523.9" y="584.95" width="3.59" height="3.59"/><rect x="3547.01" y="562.55" width="3.59" height="3.59"/><rect x="3627.69" y="579.57" width="3.59" height="3.59"/><rect x="3754.31" y="607.78" width="3.59" height="3.59"/><rect x="3879.73" y="607.78" width="3.59" height="3.59"/><rect x="3865.71" y="601.25" width="3.59" height="3.59"/><rect x="3851.36" y="593.23" width="3.59" height="3.59"/><rect x="3743.15" y="596.82" width="3.59" height="3.59"/><rect x="3893.75" y="614.99" width="3.59" height="3.59"/><rect x="3836.7" y="585.47" width="3.59" height="3.59"/><rect x="3731.84" y="585.47" width="3.59" height="3.59"/><rect x="3922.76" y="628.82" width="3.59" height="3.59"/><rect x="3908.58" y="621.92" width="3.59" height="3.59"/><rect x="3821.88" y="578.78" width="3.59" height="3.59"/><rect x="3720.04" y="573.84" width="3.59" height="3.59"/><rect x="3807.38" y="572.04" width="3.59" height="3.59"/><rect x="3580.56" y="528.54" width="3.59" height="3.59"/><rect x="3570.04" y="538.73" width="3.59" height="3.59"/><rect x="3627.69" y="547.81" width="3.59" height="3.59"/><rect x="3685.7" y="539.69" width="3.59" height="3.59"/><rect x="3764.03" y="548.81" width="3.59" height="3.59"/><rect x="3749.84" y="543.27" width="3.59" height="3.59"/><rect x="3735.42" y="535.54" width="3.59" height="3.59"/><rect x="3720.88" y="528.54" width="3.59" height="3.59"/><polygon points="3488.56 608.09 3505.22 624.51 3473.42 639.97 3488.56 608.09"/><polygon points="3618.29 599.22 3640.92 598.61 3629.6 631.04 3618.29 599.22"/><polygon points="3769.69 607.78 3754.31 624.35 3785.3 639.65 3769.69 607.78"/><polygon points="3936.39 624.67 3925.55 645.07 3959.01 650.17 3936.39 624.67"/><text class="cls-5" transform="translate(3555.45 493.41)">Column 4 </text><line class="cls-1" x1="2936.95" y1="174.15" x2="3488.93" y2="449.22"/><polygon points="2866.78 392.32 2888.56 389.29 2882.19 423.32 2866.78 392.32"/><ellipse class="cls-1" cx="2947.47" cy="463.44" rx="132.38" ry="48.45"/><rect x="2888.3" y="519.23" width="3.59" height="3.59"/><rect x="2945.68" y="527.86" width="3.59" height="3.59"/><rect x="2854.09" y="555.04" width="3.59" height="3.59"/><rect x="2945.68" y="575.87" width="3.59" height="3.59"/><rect x="2876.19" y="531.45" width="3.59" height="3.59"/><rect x="2945.68" y="543.84" width="3.59" height="3.59"/><rect x="3050.06" y="566.15" width="3.59" height="3.59"/><rect x="3038.43" y="554.68" width="3.59" height="3.59"/><rect x="3026.95" y="542.89" width="3.59" height="3.59"/><rect x="3048.52" y="533.24" width="3.59" height="3.59"/><rect x="3082.43" y="530.27" width="3.59" height="3.59"/><rect x="3111.32" y="544.68" width="3.59" height="3.59"/><rect x="3140.01" y="559.23" width="3.59" height="3.59"/><rect x="3169.87" y="573.58" width="3.59" height="3.59"/><rect x="3198.13" y="587.71" width="3.59" height="3.59"/><rect x="3226.92" y="602.39" width="3.59" height="3.59"/><rect x="3096.22" y="537.51" width="3.59" height="3.59"/><rect x="3125.65" y="551.86" width="3.59" height="3.59"/><rect x="3154.87" y="566.42" width="3.59" height="3.59"/><rect x="3184.09" y="581.29" width="3.59" height="3.59"/><rect x="3212.03" y="595.53" width="3.59" height="3.59"/><rect x="3241.25" y="609.66" width="3.59" height="3.59"/><rect x="3068.49" y="523.68" width="3.59" height="3.59"/><rect x="3039.38" y="509.05" width="3.59" height="3.59"/><rect x="3014.84" y="531.45" width="3.59" height="3.59"/><rect x="3054.47" y="516.51" width="3.59" height="3.59"/><rect x="3026.95" y="503.19" width="3.59" height="3.59"/><rect x="3004" y="520.1" width="3.59" height="3.59"/><rect x="2865.25" y="543.14" width="3.59" height="3.59"/><rect x="2945.68" y="560.18" width="3.59" height="3.59"/><rect x="3072.69" y="588.71" width="3.59" height="3.59"/><rect x="3061.18" y="577.67" width="3.59" height="3.59"/><rect x="2992.37" y="510.1" width="3.59" height="3.59"/><rect x="2945.68" y="511.89" width="3.59" height="3.59"/><rect x="2842.09" y="566.62" width="3.59" height="3.59"/><rect x="2830.4" y="577.67" width="3.59" height="3.59"/><rect x="2819.46" y="589.25" width="3.59" height="3.59"/><rect x="2899.35" y="510.1" width="3.59" height="3.59"/><polygon points="2807.54 589.25 2823.04 604.85 2791.5 620.79 2807.54 589.25"/><polygon points="2936.95 579.46 2959.26 579.46 2948.11 611.81 2936.95 579.46"/><polygon points="3088.31 588.71 3071.61 605.52 3103.69 619.66 3088.31 588.71"/><polygon points="3254.94 604.64 3244 625.46 3278.21 630.56 3254.94 604.64"/><text class="cls-5" transform="translate(2873.64 474.02)">Column 3 </text><line class="cls-1" x1="2854.09" y1="204.67" x2="2877.98" y2="399.05"/><polygon points="2580.7 361.31 2595.54 377.54 2563.9 391.59 2580.7 361.31"/><ellipse class="cls-1" cx="2485.49" cy="430.78" rx="132.28" ry="47.7"/><rect x="2188.41" y="577.09" width="3.59" height="3.59"/><rect x="2216.61" y="562.96" width="3.59" height="3.59"/><rect x="2273.75" y="534.59" width="3.59" height="3.59"/><rect x="2304.03" y="519.19" width="3.59" height="3.59"/><rect x="2361.3" y="491.03" width="3.59" height="3.59"/><rect x="2260.06" y="541.6" width="3.59" height="3.59"/><rect x="2289.17" y="526.73" width="3.59" height="3.59"/><rect x="2332.73" y="505.27" width="3.59" height="3.59"/><rect x="2318.71" y="511.54" width="3.59" height="3.59"/><rect x="2389.58" y="476.26" width="3.59" height="3.59"/><rect x="2426.07" y="487.44" width="3.59" height="3.59"/><rect x="2484.29" y="494.99" width="3.59" height="3.59"/><rect x="2541.45" y="487.01" width="3.59" height="3.59"/><rect x="2552.71" y="498.57" width="3.59" height="3.59"/><rect x="2531.04" y="476.18" width="3.59" height="3.59"/><rect x="2484.29" y="479.26" width="3.59" height="3.59"/><rect x="2413.96" y="499.2" width="3.59" height="3.59"/><rect x="2484.29" y="510.71" width="3.59" height="3.59"/><rect x="2564.35" y="510.71" width="3.59" height="3.59"/><rect x="2403.33" y="509.74" width="3.59" height="3.59"/><rect x="2484.29" y="527.41" width="3.59" height="3.59"/><rect x="2610.23" y="556.26" width="3.59" height="3.59"/><rect x="2587.78" y="533.79" width="3.59" height="3.59"/><rect x="2575.98" y="521.99" width="3.59" height="3.59"/><rect x="2391.37" y="520.69" width="3.59" height="3.59"/><rect x="2484.29" y="543.1" width="3.59" height="3.59"/><rect x="2598.83" y="544.9" width="3.59" height="3.59"/><rect x="2379.68" y="532.8" width="3.59" height="3.59"/><rect x="2368.21" y="544.58" width="3.59" height="3.59"/><rect x="2357.26" y="556.48" width="3.59" height="3.59"/><rect x="2375.87" y="482.53" width="3.59" height="3.59"/><rect x="2346.33" y="497.4" width="3.59" height="3.59"/><rect x="2244.98" y="548.51" width="3.59" height="3.59"/><rect x="2202.86" y="570.29" width="3.59" height="3.59"/><rect x="2232.08" y="555.73" width="3.59" height="3.59"/><polygon points="2178.36 571.79 2189.76 592.95 2154.34 597.13 2178.36 571.79"/><polygon points="2344.58 555.89 2361.59 572.63 2329.48 587.05 2344.58 555.89"/><polygon points="2473.96 546.69 2497.92 546.69 2485.22 579.25 2473.96 546.69"/><polygon points="2609.89 572.23 2626.22 555.22 2642.64 586.81 2609.89 572.23"/><text class="cls-5" transform="translate(2409.91 441.24)">Column 2 </text><line class="cls-1" x1="2794.91" y1="197.21" x2="2583.03" y2="372.54"/><line class="cls-1" x1="2736.05" y1="152.6" x2="1709.31" y2="383.68"/><polygon points="1704.79 806.74 1723.53 798.07 1727.11 830.37 1704.79 806.74"/><ellipse class="cls-1" cx="1713.43" cy="876.43" rx="124.78" ry="45.28"/><rect x="1638.89" y="923.22" width="3.37" height="3.37" transform="translate(-44.64 84.08) rotate(-2.9)"/><rect x="1649.82" y="914.65" width="3.37" height="3.37" transform="translate(-44.19 84.62) rotate(-2.9)"/><rect x="1741.17" y="933.31" width="3.37" height="3.37" transform="translate(-45.02 89.26) rotate(-2.9)"/><rect x="1748.15" y="947.36" width="3.37" height="3.37" transform="translate(-45.72 89.63) rotate(-2.9)"/><rect x="1754.54" y="961.35" width="3.37" height="3.37" transform="translate(-46.42 89.97) rotate(-2.9)"/><rect x="1762.22" y="974.92" width="3.37" height="3.37" transform="translate(-47.09 90.38) rotate(-2.9)"/><rect x="1688.85" y="922.24" width="3.37" height="3.37" transform="translate(-50.68 99.48) rotate(-3.32)"/><rect x="1682.72" y="933.31" width="3.37" height="3.37" transform="translate(-51.33 99.14) rotate(-3.32)"/><rect x="1675.39" y="947.36" width="3.37" height="3.37" transform="translate(-52.16 98.74) rotate(-3.32)"/><rect x="1668.65" y="961.35" width="3.37" height="3.37" transform="translate(-52.98 98.37) rotate(-3.32)"/><rect x="1662.13" y="974.92" width="3.37" height="3.37" transform="translate(-53.78 98.02) rotate(-3.32)"/><rect x="1655.35" y="988.13" width="3.37" height="3.37" transform="translate(-54.55 97.65) rotate(-3.32)"/><rect x="1768.32" y="987.11" width="3.37" height="3.37" transform="translate(-47.7 90.7) rotate(-2.9)"/><rect x="1734.97" y="921.68" width="3.37" height="3.37" transform="translate(-44.44 88.93) rotate(-2.9)"/><rect x="1626.09" y="931.51" width="3.37" height="3.37" transform="translate(-45.07 83.44) rotate(-2.9)"/><rect x="1613.16" y="940.01" width="3.37" height="3.37" transform="translate(-45.52 82.8) rotate(-2.9)"/><rect x="1588.73" y="956.13" width="3.37" height="3.37" transform="translate(-46.37 81.59) rotate(-2.9)"/><rect x="1575.07" y="965.21" width="3.37" height="3.37" transform="matrix(1, -0.05, 0.05, 1, -46.84, 80.91)"/><rect x="1562.7" y="973.98" width="3.37" height="3.37" transform="matrix(1, -0.05, 0.05, 1, -47.3, 80.29)"/><rect x="1550.63" y="982.26" width="3.37" height="3.37" transform="translate(-47.74 79.69) rotate(-2.9)"/><rect x="1537.96" y="990.44" width="3.37" height="3.37" transform="translate(-48.16 79.06) rotate(-2.9)"/><rect x="1524.99" y="999.12" width="3.37" height="3.37" transform="translate(-48.62 78.42) rotate(-2.9)"/><rect x="1512.93" y="1007.1" width="3.37" height="3.37" transform="matrix(1, -0.05, 0.05, 1, -49.04, 77.82)"/><rect x="1601.44" y="948.28" width="3.37" height="3.37" transform="translate(-45.95 82.22) rotate(-2.9)"/><rect x="1785.05" y="923.45" width="3.37" height="3.37" transform="translate(980.75 2768.68) rotate(-93.76)"/><rect x="1911.03" y="1007.5" width="3.37" height="3.37" transform="translate(1703.99 3161.71) rotate(-112.28)"/><rect x="1797.02" y="931.59" width="3.37" height="3.37" transform="translate(1617 2951.52) rotate(-112.28)"/><rect x="1809.99" y="939.98" width="3.37" height="3.37" transform="translate(1627.13 2975.09) rotate(-112.28)"/><rect x="1848.16" y="965.18" width="3.37" height="3.37" transform="translate(1656.44 3045.17) rotate(-112.28)"/><rect x="1834.99" y="956.91" width="3.37" height="3.37" transform="matrix(-0.38, -0.93, 0.93, -0.38, 1645.94, 3021.57)"/><rect x="1822.46" y="948.45" width="3.37" height="3.37" transform="matrix(-0.38, -0.93, 0.93, -0.38, 1636.48, 2998.32)"/><rect x="1860.56" y="974.09" width="3.37" height="3.37" transform="translate(1665.31 3068.93) rotate(-112.28)"/><rect x="1873.05" y="982.39" width="3.37" height="3.37" transform="matrix(-0.38, -0.93, 0.93, -0.38, 1674.84, 3091.93)"/><rect x="1886.35" y="990.98" width="3.37" height="3.37" transform="matrix(-0.38, -0.93, 0.93, -0.38, 1685.24, 3116.09)"/><rect x="1898.35" y="999.14" width="3.37" height="3.37" transform="translate(1694.24 3138.45) rotate(-112.28)"/><polygon points="1506.83 1000.8 1518.91 1019.9 1485.51 1027.73 1506.83 1000.8"/><polygon points="1645.2 984.79 1667.71 994.66 1643.4 1017.49 1645.2 984.79"/><polygon points="1761.32 995.05 1779.91 986.07 1784.03 1018.31 1761.32 995.05"/><polygon points="1920.99 1001.71 1908.33 1019.46 1939.65 1027.84 1920.99 1001.71"/><text class="cls-6" transform="translate(1643.48 885.37)">Column 3</text><line class="cls-1" x1="1555.24" y1="513.21" x2="1714.11" y2="803"/><ellipse class="cls-1" cx="390.71" cy="864.35" rx="124.03" ry="45.78"/><rect x="300.86" y="906.09" width="3.37" height="3.37"/><rect x="312.36" y="901.57" width="3.37" height="3.37"/><rect x="389.02" y="924.01" width="3.37" height="3.37"/><rect x="389.02" y="939.14" width="3.37" height="3.37"/><rect x="388.57" y="954.27" width="3.37" height="3.37"/><rect x="343.8" y="907.94" width="3.37" height="3.37" transform="translate(-6.73 2.58) rotate(-0.42)"/><rect x="389.02" y="969.4" width="3.37" height="3.37"/><rect x="389.02" y="911.44" width="3.37" height="3.37"/><rect x="287.7" y="913.72" width="3.37" height="3.37"/><rect x="273.59" y="920.42" width="3.37" height="3.37"/><rect x="259.42" y="927.37" width="3.37" height="3.37"/><rect x="247.04" y="933.62" width="3.37" height="3.37"/><rect x="232.94" y="940.2" width="3.37" height="3.37"/><rect x="219.77" y="947.76" width="3.37" height="3.37"/><rect x="206.53" y="953.48" width="3.37" height="3.37"/><rect x="191.83" y="961.19" width="3.37" height="3.37"/><rect x="179.11" y="967.55" width="3.37" height="3.37"/><rect x="333.58" y="918.13" width="3.37" height="3.37" transform="translate(-280.44 158.65) rotate(-18.94)"/><rect x="323.9" y="928.06" width="3.37" height="3.37" transform="translate(-284.19 156.05) rotate(-18.94)"/><rect x="312.7" y="938.86" width="3.37" height="3.37" transform="translate(-288.31 153) rotate(-18.94)"/><rect x="302.7" y="950.28" width="3.37" height="3.37" transform="translate(-292.55 150.37) rotate(-18.94)"/><rect x="292.03" y="960" width="3.37" height="3.37" transform="translate(-296.29 147.43) rotate(-18.94)"/><rect x="280.63" y="972.06" width="3.37" height="3.37" transform="translate(-300.82 144.38) rotate(-18.94)"/><rect x="270.66" y="982.2" width="3.37" height="3.37" transform="translate(-304.65 141.7) rotate(-18.94)"/><rect x="432.15" y="908.15" width="3.37" height="3.37" transform="translate(-469.36 1357.33) rotate(-90.86)"/><rect x="442.42" y="918.29" width="3.37" height="3.37" transform="translate(-276.35 1644.22) rotate(-109.38)"/><rect x="452.42" y="927.9" width="3.37" height="3.37" transform="translate(-272.09 1666.44) rotate(-109.38)"/><rect x="463.31" y="939.01" width="3.37" height="3.37" transform="translate(-268.07 1691.52) rotate(-109.38)"/><rect x="474.81" y="948.93" width="3.37" height="3.37" transform="matrix(-0.33, -0.94, 0.94, -0.33, -262.11, 1715.57)"/><rect x="484.6" y="959.52" width="3.37" height="3.37" transform="translate(-259.06 1738.92) rotate(-109.38)"/><rect x="496.75" y="970.83" width="3.37" height="3.37" transform="translate(-253.55 1765.44) rotate(-109.38)"/><rect x="506.97" y="980.71" width="3.37" height="3.37" transform="matrix(-0.33, -0.94, 0.94, -0.33, -249.27, 1788.24)"/><rect x="164.94" y="974.17" width="3.37" height="3.37"/><rect x="151.77" y="981.65" width="3.37" height="3.37"/><rect x="138.49" y="987.33" width="3.37" height="3.37"/><rect x="125.36" y="994.93" width="3.37" height="3.37"/><rect x="111.11" y="1001.43" width="3.37" height="3.37"/><polygon points="100.83 996.8 111.97 1015.72 81.9 1019.39 100.83 996.8"/><polygon points="257.5 980.2 275.01 997.45 244.16 1010.11 257.5 980.2"/><polygon points="380.16 972.15 400.81 972.15 390.48 1002.97 380.16 972.15"/><polygon points="522.85 981.05 507.14 996.38 536.84 1009.89 522.85 981.05"/><text class="cls-7" transform="translate(321.14 873.39)">Column 1</text><text class="cls-3" transform="translate(33.09 811.92)">where to place queen in row 2 </text><line class="cls-1" x1="1319.32" y1="488.94" x2="521.99" y2="838.1"/><polygon points="503.81 846.32 529.22 820.79 537.16 844 503.81 846.32"/><ellipse class="cls-1" cx="1115.74" cy="888.01" rx="124.03" ry="45.48"/><rect x="1025.31" y="931.02" width="3.37" height="3.37"/><rect x="1036.81" y="926.49" width="3.37" height="3.37"/><rect x="1113.48" y="948.93" width="3.37" height="3.37"/><rect x="1113.48" y="964.06" width="3.37" height="3.37"/><rect x="1113.03" y="979.19" width="3.37" height="3.37"/><rect x="1068.25" y="932.87" width="3.37" height="3.37" transform="translate(-6.89 7.95) rotate(-0.42)"/><rect x="1113.48" y="994.32" width="3.37" height="3.37"/><rect x="1113.48" y="936.36" width="3.37" height="3.37"/><rect x="1012.15" y="938.65" width="3.37" height="3.37"/><rect x="998.05" y="945.34" width="3.37" height="3.37"/><rect x="983.87" y="952.3" width="3.37" height="3.37"/><rect x="971.49" y="958.55" width="3.37" height="3.37"/><rect x="957.39" y="965.13" width="3.37" height="3.37"/><rect x="944.22" y="972.68" width="3.37" height="3.37"/><rect x="930.98" y="978.41" width="3.37" height="3.37"/><rect x="916.28" y="986.11" width="3.37" height="3.37"/><rect x="903.56" y="992.47" width="3.37" height="3.37"/><rect x="1058.03" y="943.06" width="3.37" height="3.37" transform="translate(-249.3 395.19) rotate(-18.94)"/><rect x="1048.35" y="952.98" width="3.37" height="3.37" transform="translate(-253.05 392.58) rotate(-18.94)"/><rect x="1037.15" y="963.79" width="3.37" height="3.37" transform="translate(-257.16 389.53) rotate(-18.94)"/><rect x="1027.15" y="975.21" width="3.37" height="3.37" transform="translate(-261.41 386.9) rotate(-18.94)"/><rect x="1016.48" y="984.92" width="3.37" height="3.37" transform="matrix(0.95, -0.32, 0.32, 0.95, -265.14, 383.96)"/><rect x="1005.08" y="996.98" width="3.37" height="3.37" transform="translate(-269.67 380.92) rotate(-18.94)"/><rect x="995.12" y="1007.12" width="3.37" height="3.37" transform="translate(-273.5 378.23) rotate(-18.94)"/><rect x="1156.61" y="933.07" width="3.37" height="3.37" transform="translate(241.09 2107) rotate(-90.86)"/><rect x="1166.87" y="943.21" width="3.37" height="3.37" transform="translate(665.02 2360.81) rotate(-109.38)"/><rect x="1176.87" y="952.82" width="3.37" height="3.37" transform="translate(669.27 2383.04) rotate(-109.38)"/><rect x="1187.76" y="963.94" width="3.37" height="3.37" transform="translate(673.29 2408.12) rotate(-109.38)"/><rect x="1199.26" y="973.85" width="3.37" height="3.37" transform="translate(679.25 2432.16) rotate(-109.38)"/><rect x="1209.05" y="984.44" width="3.37" height="3.37" transform="translate(682.3 2455.51) rotate(-109.38)"/><rect x="1221.2" y="995.75" width="3.37" height="3.37" transform="translate(687.81 2482.03) rotate(-109.38)"/><rect x="1231.42" y="1005.64" width="3.37" height="3.37" transform="translate(692.1 2504.83) rotate(-109.38)"/><rect x="889.39" y="999.09" width="3.37" height="3.37"/><rect x="876.22" y="1006.57" width="3.37" height="3.37"/><rect x="862.94" y="1012.26" width="3.37" height="3.37"/><rect x="849.82" y="1019.85" width="3.37" height="3.37"/><rect x="835.56" y="1026.36" width="3.37" height="3.37"/><polygon points="825.28 1021.72 836.42 1040.65 806.35 1044.31 825.28 1021.72"/><polygon points="981.95 1005.13 999.46 1022.37 968.61 1035.04 981.95 1005.13"/><polygon points="1104.61 997.07 1125.26 997.07 1114.93 1027.89 1104.61 997.07"/><polygon points="1247.31 1005.97 1231.6 1021.31 1261.3 1034.81 1247.31 1005.97"/><text class="cls-6" transform="translate(1043.45 897.14)">Column 2</text><line class="cls-8" x1="1388.46" y1="502.54" x2="1182.1" y2="824.62"/><polygon points="1173.91 811.92 1195.66 823.37 1170.92 846.99 1173.91 811.92"/><polygon points="2177.02 839.28 2188.59 822.18 2210.95 847.99 2177.02 839.28"/><ellipse class="cls-1" cx="2293.47" cy="883.12" rx="124.08" ry="45.58"/><rect x="2241.51" y="981.71" width="3.37" height="3.37"/><rect x="2248.79" y="968.24" width="3.37" height="3.37"/><rect x="2327.79" y="954.48" width="3.37" height="3.37"/><rect x="2334.97" y="968.64" width="3.37" height="3.37"/><rect x="2377.54" y="938.63" width="3.37" height="3.37"/><rect x="2364.37" y="930.63" width="3.37" height="3.37"/><rect x="2389.73" y="947.08" width="3.37" height="3.37"/><rect x="2402.07" y="955.46" width="3.37" height="3.37"/><rect x="2426.71" y="928.94" width="3.37" height="3.37"/><rect x="2454.91" y="938.63" width="3.37" height="3.37"/><rect x="2497.25" y="954.71" width="3.37" height="3.37"/><rect x="2483.19" y="949.63" width="3.37" height="3.37"/><rect x="2398.21" y="917.81" width="3.37" height="3.37"/><rect x="2411.67" y="923.57" width="3.37" height="3.37"/><rect x="2440.25" y="933.3" width="3.37" height="3.37"/><rect x="2468.53" y="944" width="3.37" height="3.37"/><rect x="2511.54" y="959.48" width="3.37" height="3.37"/><rect x="2525.01" y="965.09" width="3.37" height="3.37"/><rect x="2539.74" y="970.78" width="3.37" height="3.37"/><rect x="2568.1" y="981.92" width="3.37" height="3.37"/><rect x="2596.6" y="993.44" width="3.37" height="3.37"/><rect x="2553.14" y="976.31" width="3.37" height="3.37"/><rect x="2581.56" y="987.61" width="3.37" height="3.37"/><rect x="2609.76" y="998.87" width="3.37" height="3.37"/><rect x="2638.19" y="1010.39" width="3.37" height="3.37"/><rect x="2664.6" y="1021.98" width="3.37" height="3.37"/><rect x="2624.88" y="1004.7" width="3.37" height="3.37"/><rect x="2651.51" y="1016.07" width="3.37" height="3.37"/><rect x="2414.87" y="964.14" width="3.37" height="3.37"/><rect x="2427.13" y="972.59" width="3.37" height="3.37"/><rect x="2440.45" y="981.2" width="3.37" height="3.37"/><rect x="2452.79" y="989.5" width="3.37" height="3.37"/><rect x="2465.51" y="997.88" width="3.37" height="3.37"/><rect x="2477.63" y="1006.48" width="3.37" height="3.37"/><rect x="2489.9" y="1014.93" width="3.37" height="3.37"/><rect x="2348.34" y="994.24" width="3.37" height="3.37"/><rect x="2341.35" y="981.71" width="3.37" height="3.37"/><rect x="2321.11" y="940.31" width="3.37" height="3.37"/><rect x="2314.92" y="928.7" width="3.37" height="3.37"/><rect x="2261.96" y="940.71" width="3.37" height="3.37"/><rect x="2255.28" y="954.48" width="3.37" height="3.37"/><rect x="2268.74" y="928.7" width="3.37" height="3.37"/><rect x="2235.53" y="994.28" width="3.37" height="3.37"/><polygon points="2227.24 992.66 2246.01 1003.36 2221.96 1025.56 2227.24 992.66"/><polygon points="2340.66 1003.11 2359.7 992.24 2364.98 1026.05 2340.66 1003.11"/><polygon points="2500.51 1008.16 2487.42 1027 2521.16 1035.75 2500.51 1008.16"/><polygon points="2673.69 1015.7 2663.29 1034.85 2694.56 1038.82 2673.69 1015.7"/><text class="cls-6" transform="translate(2222.81 892.56)">Column 4</text><line class="cls-1" x1="1648.31" y1="493.41" x2="2184.72" y2="831.14"/></svg>