<svg xmlns="http://www.w3.org/2000/svg" viewBox="0 0 4000 1130.94"><defs><style>.cls-1{fill:none;stroke:#000;stroke-miterlimit:10;stroke-width:1.5px;}.cls-2{font-size:50.84px;}.cls-10,.cls-2,.cls-4,.cls-5,.cls-7{font-family:TimesNewRomanPSMT, Times New Roman;}.cls-3,.cls-4{fill:red;}.cls-4{font-size:53.07px;}.cls-5{font-size:49.02px;}.cls-6{letter-spacing:-0.07em;}.cls-7{font-size:49.38px;}.cls-8{letter-spacing:-0.07em;}.cls-9{letter-spacing:-0.07em;}.cls-10{font-size:47.71px;}.cls-11{letter-spacing:-0.07em;}</style></defs><title>05_powerset</title><g id="Layer_3" data-name="Layer 3"><ellipse class="cls-1" cx="2024.63" cy="83.58" rx="411.16" ry="65.87"/><ellipse class="cls-1" cx="1837.68" cy="406.25" rx="107.11" ry="64.53"/><ellipse class="cls-1" cx="2926.57" cy="405.92" rx="98.13" ry="64.2"/><ellipse class="cls-1" cx="1837.35" cy="728.59" rx="98.13" ry="64.87"/><ellipse class="cls-1" cx="2912.69" cy="728.41" rx="98.13" ry="64.53"/><ellipse class="cls-1" cx="775.31" cy="729.6" rx="107.78" ry="65.12"/><ellipse class="cls-1" cx="286.25" cy="1054.75" rx="124" ry="65.12"/><ellipse class="cls-1" cx="775.06" cy="1053.35" rx="107.53" ry="65.37"/><ellipse class="cls-1" cx="3593.05" cy="733.65" rx="98.8" ry="65.24"/><text class="cls-2" transform="translate(1755.84 95.79)">start with the empty set <tspan class="cls-3" x="487.11" y="0">{}</tspan></text><text class="cls-4" transform="translate(1787.03 422.08)">{a}</text><text class="cls-4" transform="translate(1800 743.42)">{a}</text><text class="cls-4" transform="translate(725.49 744.67)">{ab}</text><text class="cls-4" transform="translate(725.49 1067.51)">{ab}</text><text class="cls-4" transform="translate(224.53 1068.66)">{abc}</text><text class="cls-4" transform="translate(2873.51 742.9)">{b}</text><text class="cls-4" transform="translate(2900.2 421.41)">{}</text><text class="cls-4" transform="translate(3567.84 748.6)">{}</text><text class="cls-5" transform="translate(2327.17 203.2)">do not add ‘a<tspan class="cls-6" x="257.27" y="0">’</tspan></text><text class="cls-7" transform="translate(1848.15 582.65)">do not add ‘b<tspan class="cls-8" x="261.92" y="0">’</tspan></text><text class="cls-7" transform="translate(783.29 904.95)">do not add ‘c<tspan class="cls-9" x="259.15" y="0">’</tspan></text><text class="cls-7" transform="translate(3338.97 571.88)">do not add ‘b<tspan class="cls-8" x="261.92" y="0">’</tspan></text><text class="cls-10" transform="translate(1960.43 259.68)">add ‘a<tspan class="cls-11" x="117.89" y="0">’</tspan></text><text class="cls-10" transform="translate(1279.78 605.31)">add ‘b<tspan class="cls-11" x="120.56" y="0">’</tspan></text><text class="cls-10" transform="translate(468.13 916.07)">add ‘c<tspan class="cls-11" x="117.89" y="0">’</tspan></text><text class="cls-10" transform="translate(2935.55 581.69)">add ‘b<tspan class="cls-11" x="120.56" y="0">’</tspan></text><line class="cls-1" x1="2142.69" y1="146.68" x2="2811.37" y2="372.27"/><polygon points="2791.31 376.01 2806.03 347.59 2834.42 379.8 2791.31 376.01"/><line class="cls-1" x1="1985.88" y1="149.44" x2="1890.32" y2="314.35"/><polygon points="1877.41 303.75 1905.04 319.59 1871.58 345.43 1877.41 303.75"/><line class="cls-1" x1="1837.68" y1="470.79" x2="1837.68" y2="628.21"/><polygon points="1823.21 624.72 1853.65 624.72 1837.35 663.73 1823.21 624.72"/><line class="cls-1" x1="774.31" y1="796.13" x2="774.31" y2="953.55"/><polygon points="759.84 950.06 790.28 950.06 773.98 989.07 759.84 950.06"/><line class="cls-1" x1="2925.82" y1="471.14" x2="2925.82" y2="628.57"/><polygon points="2911.35 625.08 2941.79 625.08 2925.49 664.08 2911.35 625.08"/><line class="cls-1" x1="1744.81" y1="438.1" x2="889.45" y2="680.07"/><polygon points="889.79 661.67 903.45 690.99 862.74 692.66 889.79 661.67"/><line class="cls-1" x1="3010.82" y1="438.84" x2="3513.12" y2="666.26"/><polygon points="3494.25 672.58 3508.14 646.99 3535.66 679.31 3494.25 672.58"/><line class="cls-1" x1="687.26" y1="767.12" x2="338.97" y2="964.69"/><path d="M331,951.9c.12.43,17.94,24.41,17.94,24.41l-40.63,12.88Z"/><rect x="1799.09" y="790.72" width="5.49" height="5.49"/><rect x="1787.37" y="807.43" width="5.49" height="5.49"/><rect x="1855.88" y="812.92" width="5.49" height="5.49"/><rect x="1866.12" y="856.83" width="5.49" height="5.49"/><rect x="1861.37" y="834.88" width="5.49" height="5.49"/><rect x="1850.4" y="793.46" width="5.49" height="5.49"/><rect x="1765.41" y="845.52" width="5.49" height="5.49"/><rect x="1743.54" y="883.78" width="5.49" height="5.49"/><rect x="1874.35" y="900.16" width="5.49" height="5.49"/><rect x="1721.75" y="922.11" width="5.49" height="5.49"/><rect x="1885.33" y="941.16" width="5.49" height="5.49"/><rect x="1776.3" y="826.56" width="5.49" height="5.49"/><rect x="1754.52" y="864.65" width="5.49" height="5.49"/><rect x="1871.61" y="878.29" width="5.49" height="5.49"/><rect x="1732.56" y="902.9" width="5.49" height="5.49"/><rect x="1879.84" y="922.11" width="5.49" height="5.49"/><rect x="1710.77" y="941.16" width="5.49" height="5.49"/><polygon points="1692.47 948.31 1720.92 964.94 1683.33 995.38 1692.47 948.31"/><path d="M1877.18,953.23c0-.25,27.23-6.5,27.23-6.5l-4.73,43.3Z"/><rect x="2895.72" y="793.28" width="5.49" height="5.49"/><rect x="2890.23" y="812.4" width="5.49" height="5.49"/><rect x="2958.59" y="806.91" width="5.49" height="5.49"/><rect x="2980.22" y="845.09" width="5.49" height="5.49"/><rect x="2969.48" y="825.96" width="5.49" height="5.49"/><rect x="2947.61" y="790.2" width="5.49" height="5.49"/><rect x="2879.25" y="855.9" width="5.49" height="5.49"/><rect x="2871.1" y="899.64" width="5.49" height="5.49"/><rect x="3002.17" y="883.42" width="5.49" height="5.49"/><rect x="2860.13" y="940.56" width="5.49" height="5.49"/><rect x="3024.04" y="921.6" width="5.49" height="5.49"/><rect x="2884.74" y="834.03" width="5.49" height="5.49"/><rect x="2876.51" y="877.77" width="5.49" height="5.49"/><rect x="2991.36" y="864.13" width="5.49" height="5.49"/><rect x="2865.62" y="921.85" width="5.49" height="5.49"/><rect x="3013.06" y="902.47" width="5.49" height="5.49"/><rect x="3034.85" y="940.64" width="5.49" height="5.49"/><polygon points="2846.13 944.1 2878.59 949.73 2854.03 991.4 2846.13 944.1"/><path d="M3031.68,962.6c-.07-.3,30.79-15.71,30.79-15.71l6.9,53.33Z"/><rect x="3589.51" y="797.5" width="5.49" height="5.49"/><rect x="3589.51" y="819.53" width="5.49" height="5.49"/><rect x="3652.25" y="805.73" width="5.49" height="5.49"/><rect x="3679.7" y="838.7" width="5.49" height="5.49"/><rect x="3665.97" y="822.28" width="5.49" height="5.49"/><rect x="3636.49" y="792.01" width="5.49" height="5.49"/><rect x="3589.51" y="863.49" width="5.49" height="5.49"/><rect x="3589.51" y="909.73" width="5.49" height="5.49"/><rect x="3706.98" y="874.21" width="5.49" height="5.49"/><rect x="3761.7" y="942.59" width="5.49" height="5.49"/><rect x="3775.26" y="958.93" width="5.49" height="5.49"/><rect x="3734.34" y="907.02" width="5.49" height="5.49"/><rect x="3589.51" y="841.49" width="5.49" height="5.49"/><rect x="3589.51" y="885.05" width="5.49" height="5.49"/><rect x="3693.3" y="855.13" width="5.49" height="5.49"/><rect x="3589.51" y="931.49" width="5.49" height="5.49"/><rect x="3720.66" y="890.64" width="5.49" height="5.49"/><rect x="3747.93" y="923.45" width="5.49" height="5.49"/><polygon points="3577.83 950.33 3608.64 951.08 3593.4 996.52 3577.83 950.33"/><path d="M3771.56,976.52c-.13-.28,23.83-19,23.83-19l16.62,44Z"/></g></svg>