<svg id="Layer_2" data-name="Layer 2" xmlns="http://www.w3.org/2000/svg" viewBox="0 0 4000 1130.94"><defs><style>.cls-1{fill:none;stroke:#000;stroke-miterlimit:10;stroke-width:1.5px;}.cls-2{font-size:58.52px;}.cls-10,.cls-2,.cls-4,.cls-6,.cls-8,.cls-9{font-family:TimesNewRomanPSMT, Times New Roman;}.cls-11,.cls-3{fill:red;}.cls-4{font-size:59.74px;}.cls-5{letter-spacing:0em;}.cls-6{font-size:60.6px;}.cls-7{letter-spacing:-0.06em;}.cls-8{font-size:58.43px;}.cls-9{font-size:58.96px;}.cls-10{font-size:58.1px;}.cls-11{letter-spacing:0em;}</style></defs><title>06_robot</title><polygon points="1984.57 625.27 1998.51 656.51 1951.29 658.21 1984.57 625.27"/><ellipse class="cls-1" cx="610.28" cy="1017.18" rx="584.23" ry="77.9"/><ellipse class="cls-1" cx="1807.23" cy="1017.44" rx="538.09" ry="75.04"/><ellipse class="cls-1" cx="1805.49" cy="715.2" rx="222.01" ry="75.56"/><text class="cls-2" transform="translate(1676.44 727.56)">f(<tspan class="cls-3" x="38.98" y="0">0+1+1</tspan><tspan x="192.77" y="0">,0)</tspan></text><text class="cls-4" transform="translate(222.35 1029.59)"><tspan class="cls-3">r </tspan><tspan x="34.83" y="0">is -ve OR </tspan><tspan class="cls-3" x="278.75" y="0">c</tspan><tspan class="cls-5" x="305.26" y="0" xml:space="preserve"> is -ve? return false</tspan></text><text class="cls-6" transform="translate(1454.87 1028.72)"><tspan class="cls-3">r</tspan><tspan x="20.18" y="0" xml:space="preserve"> is 0</tspan><tspan class="cls-7" x="121.21" y="0"> </tspan><tspan x="133.01" y="0">AND </tspan><tspan class="cls-3" x="279.46" y="0">c </tspan><tspan x="321.51" y="0">is 0? return true</tspan></text><rect x="1598.35" y="763.1" width="6.1" height="6.1"/><rect x="1573.16" y="769.2" width="6.1" height="6.1"/><rect x="1548.04" y="775.7" width="6.1" height="6.1"/><rect x="1802.44" y="814.02" width="6.1" height="6.1"/><rect x="1802.44" y="841.15" width="6.1" height="6.1"/><rect x="1802.44" y="866.21" width="6.1" height="6.1"/><rect x="1802.44" y="891.27" width="6.1" height="6.1"/><rect x="1802.44" y="792.03" width="6.1" height="6.1"/><rect x="1525.97" y="781.8" width="6.1" height="6.1"/><rect x="1475.99" y="794.26" width="6.1" height="6.1"/><rect x="1450.67" y="800.69" width="6.1" height="6.1"/><rect x="1428.73" y="806.79" width="6.1" height="6.1"/><rect x="1403.74" y="813.22" width="6.1" height="6.1"/><rect x="1378.74" y="819.32" width="6.1" height="6.1"/><rect x="1353.62" y="825.81" width="6.1" height="6.1"/><rect x="1328.5" y="831.91" width="6.1" height="6.1"/><rect x="1306.3" y="838.4" width="6.1" height="6.1"/><rect x="1281.31" y="844.51" width="6.1" height="6.1"/><rect x="1256.18" y="850.93" width="6.1" height="6.1"/><rect x="1231.19" y="857.04" width="6.1" height="6.1"/><rect x="1206.14" y="863.14" width="6.1" height="6.1"/><rect x="1184.13" y="869.63" width="6.1" height="6.1"/><rect x="1159.07" y="875.73" width="6.1" height="6.1"/><rect x="1133.95" y="882.22" width="6.1" height="6.1"/><rect x="1108.83" y="888.32" width="6.1" height="6.1"/><rect x="1086.3" y="893.52" width="6.1" height="6.1"/><rect x="1061.57" y="897.8" width="6.1" height="6.1"/><rect x="1036.58" y="904.36" width="6.1" height="6.1"/><rect x="1011.33" y="910.46" width="6.1" height="6.1"/><rect x="989.52" y="916.95" width="6.1" height="6.1"/><rect x="964.39" y="923.05" width="6.1" height="6.1"/><rect x="939.27" y="929.15" width="6.1" height="6.1"/><rect x="1501.04" y="787.9" width="6.1" height="6.1"/><polygon points="913.7 923.7 921.74 949.15 876.56 947.82 913.7 923.7"/><polygon points="1789.65 897.8 1821.53 897.8 1807.23 942.4 1789.65 897.8"/><ellipse class="cls-1" cx="2869.83" cy="111.49" rx="704.19" ry="74.78"/><text class="cls-8" transform="translate(2391.71 125.65)">f(<tspan class="cls-3" x="38.92" y="0">r</tspan><tspan x="58.37" y="0">=0,</tspan><tspan class="cls-3" x="135.15" y="0">c</tspan><tspan x="161.08" y="0" xml:space="preserve">=0) ... starting position ...top right  </tspan></text><line class="cls-1" x1="2791.59" y1="188.35" x2="2666.95" y2="312.64"/><polygon points="2657.17 298.57 2681.84 322.72 2636.08 345.14 2657.17 298.57"/><text class="cls-9" transform="translate(2525.31 246.7)">go down</text><line class="cls-1" x1="2942.19" y1="185.58" x2="3072.36" y2="312.98"/><polygon points="3056.27 320.25 3081.06 298.57 3099.81 343.77 3056.27 320.25"/><text class="cls-10" transform="translate(2866 324.17)">go right</text><ellipse class="cls-1" cx="3169.48" cy="413.47" rx="180.2" ry="75.56"/><ellipse class="cls-1" cx="3169.82" cy="715.28" rx="222.79" ry="76.17"/><ellipse class="cls-1" cx="3735.01" cy="714.42" rx="223.31" ry="75.65"/><text class="cls-2" transform="translate(3072.36 426.36)">f(0,<tspan class="cls-11" x="82.87" y="0">0+1</tspan><tspan x="174.39" y="0">)</tspan></text><text class="cls-2" transform="translate(3606.22 727.56)">f(0,<tspan class="cls-11" x="82.87" y="0">0+1+1</tspan><tspan x="236.66" y="0">)</tspan></text><text class="cls-2" transform="translate(3040.17 727.56)">f(<tspan class="cls-3" x="38.98" y="0">0+1,0+1</tspan><tspan x="236.66" y="0">)</tspan></text><line class="cls-1" x1="3169.48" y1="489.03" x2="3169.48" y2="599.65"/><line class="cls-1" x1="3280.74" y1="473.14" x2="3580.26" y2="631.85"/><polygon points="3154.42 596.88 3186.1 596.88 3170.26 639.98 3154.42 596.88"/><polygon points="3582.25 615.23 3566.15 644.65 3614.43 650.74 3582.25 615.23"/><rect x="3154.42" y="813.39" width="6.1" height="6.1"/><rect x="3157.79" y="791.45" width="6.1" height="6.1"/><rect x="3151.37" y="838.64" width="6.1" height="6.1"/><rect x="3148.32" y="866.55" width="6.1" height="6.1"/><rect x="3233.33" y="788.4" width="6.1" height="6.1"/><rect x="3248.91" y="803.46" width="6.1" height="6.1"/><rect x="3264.23" y="825.66" width="6.1" height="6.1"/><rect x="3280.22" y="844.74" width="6.1" height="6.1"/><rect x="3314.76" y="882.52" width="6.1" height="6.1"/><rect x="3299.05" y="863.57" width="6.1" height="6.1"/><rect x="3731.96" y="791.51" width="6.1" height="6.1"/><rect x="3731.96" y="816.35" width="6.1" height="6.1"/><rect x="3731.96" y="841.19" width="6.1" height="6.1"/><rect x="3807.37" y="787.38" width="6.1" height="6.1"/><rect x="3821.2" y="802.31" width="6.1" height="6.1"/><rect x="3840.61" y="820.88" width="6.1" height="6.1"/><rect x="3857.55" y="838.34" width="6.1" height="6.1"/><rect x="3876.44" y="857.1" width="6.1" height="6.1"/><rect x="3895.2" y="875.79" width="6.1" height="6.1"/><rect x="3910.85" y="891.7" width="6.1" height="6.1"/><rect x="3929.74" y="910.52" width="6.1" height="6.1"/><rect x="3731.96" y="866.64" width="6.1" height="6.1"/><rect x="3731.96" y="891.48" width="6.1" height="6.1"/><rect x="3330.34" y="901.35" width="6.1" height="6.1"/><rect x="3145.26" y="888.63" width="6.1" height="6.1"/><path d="M3130.14,894.73c1.3-.11,34.27,3.27,34.27,3.27l-24.15,47.78Z"/><path d="M3332.1,930.27c.45-.26,25.89-25.14,25.89-25.14l21.68,48.69Z"/><polygon points="3716.49 894.53 3751.72 894.53 3735.01 944.47 3716.49 894.53"/><path d="M3929.74,935.45l24.43-24.67s23,43.95,22.85,43.95S3929.74,935.45,3929.74,935.45Z"/><text class="cls-9" transform="translate(2951.15 627.11)">go down</text><text class="cls-10" transform="translate(3278 602.52)">go right</text><ellipse class="cls-1" cx="2567.33" cy="715.71" rx="221.49" ry="76.08"/><ellipse class="cls-1" cx="2567.33" cy="413.99" rx="179.42" ry="74.52"/><text class="cls-2" transform="translate(2470.65 426.36)">f(<tspan class="cls-3" x="38.98" y="0">0+1</tspan><tspan x="130.5" y="0">,0)</tspan></text><text class="cls-2" transform="translate(2439.49 727.56)">f(0+1,<tspan class="cls-3" x="145.13" y="0">0+1</tspan><tspan x="236.66" y="0">)</tspan></text><line class="cls-1" x1="2438.79" y1="464.89" x2="1987.51" y2="642.92"/><line class="cls-1" x1="2567.33" y1="488.51" x2="2567.33" y2="597.92"/><polygon points="2552.18 597.05 2584.03 597.05 2567.33 639.63 2552.18 597.05"/><rect x="2554.67" y="791.79" width="6.1" height="6.1"/><rect x="2551.62" y="813.61" width="6.1" height="6.1"/><rect x="2548.57" y="841.13" width="6.1" height="6.1"/><rect x="2545.52" y="866.45" width="6.1" height="6.1"/><rect x="2646.11" y="806.14" width="6.1" height="6.1"/><rect x="2629.76" y="787.96" width="6.1" height="6.1"/><rect x="2662.21" y="825.62" width="6.1" height="6.1"/><rect x="2677.92" y="844.18" width="6.1" height="6.1"/><rect x="2696.75" y="863.27" width="6.1" height="6.1"/><rect x="2712.2" y="882.09" width="6.1" height="6.1"/><rect x="2728.04" y="900.92" width="6.1" height="6.1"/><rect x="2541.52" y="887.37" width="6.1" height="6.1"/><path d="M2527.95,893.41c1,.22,35.14,2.94,35.14,2.94l-23.89,49.51Z"/><polygon points="2731.09 929.02 2756.75 905.65 2777.47 956.31 2731.09 929.02"/><text class="cls-9" transform="translate(2198.49 472.43)">go down</text><text class="cls-10" transform="translate(2368.15 625.27)">go right</text></svg>